SRRun01_grf
version=1
nRows=18
nColumns=19
inDegrees=no
endheader
time	ground_force_r_vx	ground_force_r_vy	ground_force_r_vz	ground_force_r_px	ground_force_r_py	ground_force_r_pz	ground_force_r_mx	ground_force_r_my	ground_force_r_mz	ground_force_l_vx	ground_force_l_vy	ground_force_l_vz	ground_force_l_px	ground_force_l_py	ground_force_l_pz	ground_force_l_mx	ground_force_l_my	ground_force_l_mz
    142.49700000	      0.00000000	      0.00000000	      0.00000000	      0.00000000	      0.00000000	      0.00000000	      0.00000000	      0.00000000	      0.00000000	    107.38958048	    750.37414298	      9.35680099	      0.97885465	      0.00000000	     -0.36868625	      0.00001537	     -5.06204969	      0.00003352
    142.49800000	      0.00000000	      0.00000000	      0.00000000	      0.00000000	      0.00000000	      0.00000000	      0.00000000	      0.00000000	      0.00000000	    112.80311522	    738.46767634	      8.24909910	      0.97648507	      0.00000000	     -0.36823252	      0.00001382	     -4.39219421	      0.00003454
    142.49900000	      0.00000000	      0.00000000	      0.00000000	      0.00000000	      0.00000000	      0.00000000	      0.00000000	      0.00000000	      0.00000000	    117.54126133	    726.69969574	      6.17076669	      0.97423108	      0.00000000	     -0.36780961	      0.00001239	     -3.22344109	      0.00003558
    142.50000000	      0.00000000	      0.00000000	      0.00000000	      0.00000000	      0.00000000	      0.00000000	      0.00000000	      0.00000000	      0.00000000	    121.17878910	    714.99331305	      3.17773032	      0.97208238	      0.00000000	     -0.36744365	      0.00001112	     -1.71837321	      0.00003646
    142.50100000	      0.00000000	      0.00000000	      0.00000000	      0.00000000	      0.00000000	      0.00000000	      0.00000000	      0.00000000	      0.00000000	    123.41275498	    703.27641930	     -0.58842916	      0.97002017	      0.00000000	     -0.36715327	      0.00001006	     -0.06594028	      0.00003705
    142.50200000	      0.00000000	      0.00000000	      0.00000000	      0.00000000	      0.00000000	      0.00000000	      0.00000000	      0.00000000	      0.00000000	    124.09526397	    691.48531417	     -4.91132441	      0.96801796	      0.00000000	     -0.36694810	      0.00000926	      1.53985682	      0.00003726
    142.50300000	      0.00000000	      0.00000000	      0.00000000	      0.00000000	      0.00000000	      0.00000000	      0.00000000	      0.00000000	      0.00000000	    123.24834796	    679.56730715	     -9.51740443	      0.96604330	      0.00000000	     -0.36682849	      0.00000871	      2.92029516	      0.00003703
    142.50400000	      0.00000000	      0.00000000	      0.00000000	      0.00000000	      0.00000000	      0.00000000	      0.00000000	      0.00000000	      0.00000000	    121.05949190	    667.48251571	    -14.09884765	      0.96406059	      0.00000000	     -0.36678628	      0.00000842	      3.92928434	      0.00003633
    142.50500000	      0.00000000	      0.00000000	      0.00000000	      0.00000000	      0.00000000	      0.00000000	      0.00000000	      0.00000000	      0.00000000	    117.85858938	    655.20505093	    -18.33965303	      0.96203477	      0.00000000	     -0.36680623	      0.00000834	      4.46626526	      0.00003521
    142.50600000	      0.00000000	      0.00000000	      0.00000000	      0.00000000	      0.00000000	      0.00000000	      0.00000000	      0.00000000	      0.00000000	    114.07921821	    642.72366841	    -21.94266129	      0.95993536	      0.00000000	     -0.36686770	      0.00000845	      4.48371105	      0.00003371
    142.50700000	      0.00000000	      0.00000000	      0.00000000	      0.00000000	      0.00000000	      0.00000000	      0.00000000	      0.00000000	      0.00000000	    110.20883226	    630.04173752	    -24.65522627	      0.95774033	      0.00000000	     -0.36694656	      0.00000868	      3.98886230	      0.00003194
    142.50800000	      0.00000000	      0.00000000	      0.00000000	      0.00000000	      0.00000000	      0.00000000	      0.00000000	      0.00000000	      0.00000000	    106.73359229	    617.17621268	    -26.29135280	      0.95543916	      0.00000000	     -0.36701721	      0.00000899	      3.03995890	      0.00003000
    142.50900000	      0.00000000	      0.00000000	      0.00000000	      0.00000000	      0.00000000	      0.00000000	      0.00000000	      0.00000000	      0.00000000	    104.08402382	    604.15543145	    -26.74832661	      0.95303470	      0.00000000	     -0.36705495	      0.00000932	      1.73781461	      0.00002801
    142.51000000	      0.00000000	      0.00000000	      0.00000000	      0.00000000	      0.00000000	      0.00000000	      0.00000000	      0.00000000	      0.00000000	    102.58746868	    591.01594332	    -26.01626033	      0.95054357	      0.00000000	     -0.36703827	      0.00000963	      0.21398094	      0.00002610
    142.51100000	      0.00000000	      0.00000000	      0.00000000	      0.00000000	      0.00000000	      0.00000000	      0.00000000	      0.00000000	      0.00000000	    102.43243459	    577.79888107	    -24.17960051	      0.94799494	      0.00000000	     -0.36695110	      0.00000988	     -1.38308244	      0.00002437
    142.51200000	      0.00000000	      0.00000000	      0.00000000	      0.00000000	      0.00000000	      0.00000000	      0.00000000	      0.00000000	      0.00000000	    103.64857391	    564.54643086	    -21.41042140	      0.94542747	      0.00000000	     -0.36678465	      0.00001005	     -2.90242370	      0.00002292
    142.51300000	      0.00000000	      0.00000000	      0.00000000	      0.00000000	      0.00000000	      0.00000000	      0.00000000	      0.00000000	      0.00000000	    106.10429405	    551.29881363	    -17.95415050	      0.94288467	      0.00000000	     -0.36653883	      0.00001012	     -4.20431751	      0.00002180
    142.51400000	      0.00000000	      0.00000000	      0.00000000	      0.00000000	      0.00000000	      0.00000000	      0.00000000	      0.00000000	      0.00000000	    109.52204547	    538.09200825	    -14.10907881	      0.94040914	      0.00000000	     -0.36622285	      0.00001008	     -5.17220081	      0.00002106
